<?xml version="1.0" encoding="UTF-8"?>
<svg width="32px" height="32px" viewBox="0 0 32 32" version="1.1" xmlns="http://www.w3.org/2000/svg" xmlns:xlink="http://www.w3.org/1999/xlink">
    <!-- Generator: Sketch 61.2 (89653) - https://sketch.com -->
    <title>Group 2</title>
    <desc>Created with Sketch.</desc>
    <g id="Page-1" stroke="none" stroke-width="1" fill="none" fill-rule="evenodd">
        <g id="Artboard-Copy-39" transform="translate(-786.000000, -256.000000)">
            <g id="Group-2" transform="translate(786.000000, 256.000000)">
                <rect id="Rectangle" fill="#02238F" x="0" y="0" width="32" height="32"></rect>
                <path d="M23.7374653,9.94977446 C23.4397164,9.59919925 23.1035484,9.29664804 22.7433684,9.02771363 C22.4216076,8.79239602 22.0806372,8.58589282 21.7108524,8.41780881 C21.5331636,8.33616801 21.34587,8.26893441 21.1489716,8.20650321 C20.86563,8.1152576 20.5582764,8.0528264 20.241318,8 L16.245721,8 L13.604401,11.0111049 L13.604401,10.6605297 L13.604401,8.0624312 L8,8.0624312 L8,23.9487709 L13.604401,23.9487709 L13.604401,17.1341651 L13.604401,13.2298138 L14.3823898,13.2298138 L15.9431698,13.2298138 L18.8005979,13.2298138 L18.8678315,13.2298138 L18.8678315,13.2298138 L19.3048499,13.220209 L19.3048499,23.9439685 L24.9092509,23.9439685 L24.9092509,14.0078026 C24.9092509,13.1625802 24.8276101,12.4086033 24.6643285,11.7458721 C24.5010469,11.0879433 24.1936933,10.4924457 23.7374653,9.94977446 Z" id="Path" fill="#FFFFFF" fill-rule="nonzero"></path>
            </g>
        </g>
    </g>
</svg>